<svg width="250" height="250" viewBox="0 0 250 250" fill="none" xmlns="http://www.w3.org/2000/svg">
<rect width="250" height="250" rx="30" fill="#18181B"/>
<path d="M48.7778 125.002C48.7778 110.852 39.6876 98.8129 27 94.3514V77.3333C27 71.2661 27 68.2325 28.1868 65.9151C29.2308 63.8767 30.8966 62.2194 32.9454 61.1807C35.2747 60 38.3239 60 44.4222 60H205.578C211.677 60 214.726 60 217.055 61.1807C219.104 62.2194 220.769 63.8767 221.813 65.9151C223 68.2325 223 71.2661 223 77.3333V94.3494C210.312 98.8108 201.222 110.852 201.222 125.002C201.222 139.153 210.312 151.19 223 155.651V172.667C223 178.734 223 181.768 221.813 184.085C220.769 186.124 219.104 187.78 217.055 188.819C214.726 190 211.677 190 205.578 190H44.4222C38.3239 190 35.2747 190 32.9454 188.819C30.8966 187.78 29.2308 186.124 28.1868 184.085C27 181.768 27 178.734 27 172.667V155.653C39.6876 151.192 48.7778 139.153 48.7778 125.002Z" stroke="#E879F9" stroke-width="10" stroke-linecap="round" stroke-linejoin="round"/>
<path d="M124.196 110.53C124.308 110.698 124.364 110.88 124.364 111.076C124.364 111.328 124.266 111.552 124.07 111.748C123.902 111.916 123.692 112 123.44 112H112.604C111.96 112 111.456 111.776 111.092 111.328L103.784 102.298V110.866C103.784 111.174 103.672 111.44 103.448 111.664C103.224 111.888 102.958 112 102.65 112H93.998C93.69 112 93.424 111.888 93.2 111.664C92.976 111.44 92.864 111.174 92.864 110.866V83.734C92.864 83.426 92.976 83.16 93.2 82.936C93.424 82.712 93.69 82.6 93.998 82.6H102.65C102.958 82.6 103.224 82.712 103.448 82.936C103.672 83.16 103.784 83.426 103.784 83.734V91.63L110.42 83.314C110.84 82.838 111.358 82.6 111.974 82.6H122.096C122.348 82.6 122.558 82.698 122.726 82.894C122.922 83.062 123.02 83.272 123.02 83.524C123.02 83.748 122.95 83.944 122.81 84.112L112.856 96.25L124.196 110.53ZM148.246 103.39H155.848C156.156 103.39 156.422 103.502 156.646 103.726C156.87 103.95 156.982 104.216 156.982 104.524V110.866C156.982 111.174 156.87 111.44 156.646 111.664C156.422 111.888 156.156 112 155.848 112H129.22C128.912 112 128.646 111.888 128.422 111.664C128.198 111.44 128.086 111.174 128.086 110.866V104.524C128.086 104.216 128.198 103.95 128.422 103.726C128.646 103.502 128.912 103.39 129.22 103.39H136.906V91.21H129.22C128.912 91.21 128.646 91.098 128.422 90.874C128.198 90.65 128.086 90.384 128.086 90.076V83.734C128.086 83.426 128.198 83.16 128.422 82.936C128.646 82.712 128.912 82.6 129.22 82.6H155.848C156.156 82.6 156.422 82.712 156.646 82.936C156.87 83.16 156.982 83.426 156.982 83.734V90.076C156.982 90.384 156.87 90.65 156.646 90.874C156.422 91.098 156.156 91.21 155.848 91.21H148.246V103.39ZM119.996 134.6C120.304 134.6 120.57 134.712 120.794 134.936C121.018 135.16 121.13 135.426 121.13 135.734V162.866C121.13 163.174 121.018 163.44 120.794 163.664C120.57 163.888 120.304 164 119.996 164H113.234C112.562 164 112.002 163.706 111.554 163.118L102.398 151.442V162.866C102.398 163.174 102.286 163.44 102.062 163.664C101.838 163.888 101.572 164 101.264 164H93.452C93.144 164 92.878 163.888 92.654 163.664C92.43 163.44 92.318 163.174 92.318 162.866V135.734C92.318 135.426 92.43 135.16 92.654 134.936C92.878 134.712 93.144 134.6 93.452 134.6H100.256C100.928 134.6 101.474 134.88 101.894 135.44L111.05 148.082V135.734C111.05 135.426 111.162 135.16 111.386 134.936C111.61 134.712 111.876 134.6 112.184 134.6H119.996ZM158.158 151.862C158.158 156.146 156.73 159.31 153.874 161.354C151.046 163.398 147.266 164.42 142.534 164.42C137.802 164.42 134.008 163.398 131.152 161.354C128.324 159.31 126.91 156.118 126.91 151.778V146.822C126.91 143.966 127.582 141.6 128.926 139.724C130.298 137.82 132.16 136.42 134.512 135.524C136.864 134.628 139.538 134.18 142.534 134.18C145.53 134.18 148.19 134.628 150.514 135.524C152.866 136.42 154.728 137.806 156.1 139.682C157.472 141.558 158.158 143.91 158.158 146.738V151.862ZM138.25 152.66C138.25 153.808 138.628 154.69 139.384 155.306C140.168 155.922 141.218 156.23 142.534 156.23C143.85 156.23 144.886 155.922 145.642 155.306C146.426 154.662 146.818 153.766 146.818 152.618V145.982C146.818 144.834 146.426 143.952 145.642 143.336C144.886 142.692 143.85 142.37 142.534 142.37C141.218 142.37 140.168 142.678 139.384 143.294C138.628 143.91 138.25 144.792 138.25 145.94V152.66Z" fill="#E879F9"/>
</svg>
