<?xml version="1.0" standalone="no"?>
<!DOCTYPE svg PUBLIC "-//W3C//DTD SVG 20010904//EN"
 "http://www.w3.org/TR/2001/REC-SVG-20010904/DTD/svg10.dtd">
<svg version="1.0" xmlns="http://www.w3.org/2000/svg"
 width="202.000000pt" height="202.000000pt" viewBox="0 0 202.000000 202.000000"
 preserveAspectRatio="xMidYMid meet">
<metadata>
Created by potrace 1.14, written by Peter Selinger 2001-2017
</metadata>
<g transform="translate(0.000000,202.000000) scale(0.100000,-0.100000)"
fill="#000000" stroke="none">
<path d="M101 1568 c-12 -4 -25 -16 -29 -27 -4 -11 -7 -254 -6 -541 0 -478 2
-522 18 -538 16 -16 80 -17 923 -17 830 -1 908 1 926 16 21 16 21 24 21 545 1
478 -1 530 -16 548 -16 21 -21 21 -916 22 -495 0 -910 -3 -921 -8z m292 -345
c-87 -113 -101 -253 -37 -370 15 -27 36 -58 47 -70 l20 -23 -60 0 c-59 0 -63
2 -95 39 -96 112 -96 310 0 422 32 37 36 39 94 39 l60 0 -29 -37z m1283 0 c-3
-21 -5 -53 -6 -72 l0 -34 -29 39 c-31 43 -65 75 -96 92 -16 9 -4 11 58 12 l79
0 -6 -37z m81 -8 c96 -116 88 -313 -16 -427 -24 -27 -29 -28 -120 -28 l-96 0
30 18 c72 44 121 126 131 216 3 28 7 65 9 81 2 17 7 63 11 103 3 39 10 72 15
72 4 0 20 -16 36 -35z"/>
</g>
</svg>
