<svg width="206" height="140" viewBox="0 0 206 140" fill="none" xmlns="http://www.w3.org/2000/svg">
    <path d="M26.7778 70.0022C26.7778 55.8517 17.6876 43.8129 5 39.3514V22.3333C5 16.2661 5 13.2325 6.18678 10.9151C7.23081 8.87671 8.89659 7.21943 10.9454 6.18073C13.2747 5 16.3239 5 22.4222 5H183.578C189.677 5 192.726 5 195.055 6.18073C197.104 7.21943 198.769 8.87671 199.813 10.9151C201 13.2325 201 16.2661 201 22.3333V39.3494C188.312 43.8108 179.222 55.8517 179.222 70.0022C179.222 84.1527 188.312 96.1896 201 100.651V117.667C201 123.734 201 126.768 199.813 129.085C198.769 131.124 197.104 132.78 195.055 133.819C192.726 135 189.677 135 183.578 135H22.4222C16.3239 135 13.2747 135 10.9454 133.819C8.89659 132.78 7.23081 131.124 6.18678 129.085C5 126.768 5 123.734 5 117.667V100.653C17.6876 96.1917 26.7778 84.1527 26.7778 70.0022Z" stroke="#E879F9" stroke-width="10" stroke-linecap="round" stroke-linejoin="round"/>
    <path d="M102.196 55.53C102.308 55.698 102.364 55.88 102.364 56.076C102.364 56.328 102.266 56.552 102.07 56.748C101.902 56.916 101.692 57 101.44 57H90.604C89.96 57 89.456 56.776 89.092 56.328L81.784 47.298V55.866C81.784 56.174 81.672 56.44 81.448 56.664C81.224 56.888 80.958 57 80.65 57H71.998C71.69 57 71.424 56.888 71.2 56.664C70.976 56.44 70.864 56.174 70.864 55.866V28.734C70.864 28.426 70.976 28.16 71.2 27.936C71.424 27.712 71.69 27.6 71.998 27.6H80.65C80.958 27.6 81.224 27.712 81.448 27.936C81.672 28.16 81.784 28.426 81.784 28.734V36.63L88.42 28.314C88.84 27.838 89.358 27.6 89.974 27.6H100.096C100.348 27.6 100.558 27.698 100.726 27.894C100.922 28.062 101.02 28.272 101.02 28.524C101.02 28.748 100.95 28.944 100.81 29.112L90.856 41.25L102.196 55.53ZM126.246 48.39H133.848C134.156 48.39 134.422 48.502 134.646 48.726C134.87 48.95 134.982 49.216 134.982 49.524V55.866C134.982 56.174 134.87 56.44 134.646 56.664C134.422 56.888 134.156 57 133.848 57H107.22C106.912 57 106.646 56.888 106.422 56.664C106.198 56.44 106.086 56.174 106.086 55.866V49.524C106.086 49.216 106.198 48.95 106.422 48.726C106.646 48.502 106.912 48.39 107.22 48.39H114.906V36.21H107.22C106.912 36.21 106.646 36.098 106.422 35.874C106.198 35.65 106.086 35.384 106.086 35.076V28.734C106.086 28.426 106.198 28.16 106.422 27.936C106.646 27.712 106.912 27.6 107.22 27.6H133.848C134.156 27.6 134.422 27.712 134.646 27.936C134.87 28.16 134.982 28.426 134.982 28.734V35.076C134.982 35.384 134.87 35.65 134.646 35.874C134.422 36.098 134.156 36.21 133.848 36.21H126.246V48.39ZM97.996 79.6C98.304 79.6 98.57 79.712 98.794 79.936C99.018 80.16 99.13 80.426 99.13 80.734V107.866C99.13 108.174 99.018 108.44 98.794 108.664C98.57 108.888 98.304 109 97.996 109H91.234C90.562 109 90.002 108.706 89.554 108.118L80.398 96.442V107.866C80.398 108.174 80.286 108.44 80.062 108.664C79.838 108.888 79.572 109 79.264 109H71.452C71.144 109 70.878 108.888 70.654 108.664C70.43 108.44 70.318 108.174 70.318 107.866V80.734C70.318 80.426 70.43 80.16 70.654 79.936C70.878 79.712 71.144 79.6 71.452 79.6H78.256C78.928 79.6 79.474 79.88 79.894 80.44L89.05 93.082V80.734C89.05 80.426 89.162 80.16 89.386 79.936C89.61 79.712 89.876 79.6 90.184 79.6H97.996ZM136.158 96.862C136.158 101.146 134.73 104.31 131.874 106.354C129.046 108.398 125.266 109.42 120.534 109.42C115.802 109.42 112.008 108.398 109.152 106.354C106.324 104.31 104.91 101.118 104.91 96.778V91.822C104.91 88.966 105.582 86.6 106.926 84.724C108.298 82.82 110.16 81.42 112.512 80.524C114.864 79.628 117.538 79.18 120.534 79.18C123.53 79.18 126.19 79.628 128.514 80.524C130.866 81.42 132.728 82.806 134.1 84.682C135.472 86.558 136.158 88.91 136.158 91.738V96.862ZM116.25 97.66C116.25 98.808 116.628 99.69 117.384 100.306C118.168 100.922 119.218 101.23 120.534 101.23C121.85 101.23 122.886 100.922 123.642 100.306C124.426 99.662 124.818 98.766 124.818 97.618V90.982C124.818 89.834 124.426 88.952 123.642 88.336C122.886 87.692 121.85 87.37 120.534 87.37C119.218 87.37 118.168 87.678 117.384 88.294C116.628 88.91 116.25 89.792 116.25 90.94V97.66Z" fill="#E879F9"/>
</svg>
